<?xml version="1.0" standalone="no"?>
<!DOCTYPE svg PUBLIC "-//W3C//DTD SVG 20010904//EN"
 "http://www.w3.org/TR/2001/REC-SVG-20010904/DTD/svg10.dtd">
<svg version="1.0" xmlns="http://www.w3.org/2000/svg"
 width="665.000000pt" height="375.000000pt" viewBox="0 0 665.000000 375.000000"
 preserveAspectRatio="xMidYMid meet">

<g transform="translate(0.000000,375.000000) scale(0.100000,-0.100000)"
fill="#000000" stroke="none">
<path d="M3330 3169 c-18 -43 -98 -122 -149 -148 -51 -27 -179 -71 -204 -71
-16 0 -15 -4 6 -32 35 -46 106 -191 133 -271 33 -96 73 -299 76 -382 l3 -70
-75 2 c-168 4 -401 68 -544 148 -37 20 -66 33 -67 28 -13 -159 -50 -231 -149
-292 -28 -17 -50 -33 -50 -35 0 -2 20 -16 44 -30 84 -49 140 -137 152 -239 l6
-54 102 47 c115 55 204 83 326 104 111 19 257 30 262 19 9 -18 -13 -293 -37
-461 -36 -251 -82 -415 -156 -551 -15 -29 -27 -57 -24 -61 2 -4 26 -10 52 -13
114 -14 249 -105 288 -195 18 -39 35 -55 35 -32 0 13 70 108 96 132 36 32 166
89 215 95 27 3 49 7 49 9 0 1 -18 35 -40 76 -112 208 -180 537 -180 872 l0
138 98 -6 c180 -13 298 -38 447 -98 55 -21 115 -48 133 -59 18 -10 35 -19 36
-19 2 0 6 27 9 61 10 110 59 182 169 244 l40 23 -35 17 c-97 46 -162 140 -173
253 -4 34 -9 62 -12 62 -2 0 -37 -17 -76 -39 -136 -74 -348 -130 -548 -145
-60 -4 -77 -3 -81 9 -9 23 13 203 39 320 32 145 102 315 162 393 19 25 21 32
9 32 -31 0 -188 58 -227 84 -37 25 -130 137 -130 157 0 20 -18 7 -30 -22z
m171 -260 c52 -19 57 -23 49 -43 -31 -78 -70 -166 -84 -191 l-17 -30 7 35 c3
19 17 63 30 98 17 46 20 62 10 62 -30 0 -99 -31 -116 -52 l-19 -23 -1 30 c0
17 -5 37 -10 45 -7 11 -10 -2 -10 -42 0 -63 -12 -75 -29 -28 -10 30 -28 41
-89 55 -31 6 -33 5 -24 -12 13 -24 86 -281 106 -369 28 -129 37 -374 35 -969
-2 -451 1 -593 11 -638 7 -31 10 -60 7 -64 -4 -4 -20 5 -35 20 -15 14 -62 42
-105 62 -42 20 -77 40 -77 46 0 5 8 26 19 47 47 94 121 480 146 762 25 279 21
286 -190 284 -152 -2 -288 -25 -420 -69 -56 -19 -106 -35 -109 -35 -3 0 -6 9
-6 21 0 30 -17 58 -64 108 -31 33 -37 45 -26 49 27 10 68 62 86 108 13 34 21
43 33 38 9 -3 57 -20 106 -36 50 -17 97 -33 105 -36 8 -3 -8 -8 -35 -12 -28
-4 -77 -15 -110 -25 l-60 -17 29 -23 c26 -21 28 -27 22 -65 -6 -41 -6 -42 21
-36 77 16 212 36 334 50 132 16 229 41 275 71 26 17 27 35 13 175 -10 98 -65
340 -101 445 -12 33 -34 86 -49 117 -16 32 -29 59 -29 62 0 2 17 10 38 16 47
15 114 54 148 85 l27 25 49 -40 c28 -22 77 -49 109 -61z m659 -747 c13 -31 37
-69 52 -83 l28 -27 -34 -25 c-18 -15 -43 -44 -54 -67 -15 -31 -21 -37 -26 -24
-4 9 -9 14 -13 10 -7 -7 -43 68 -43 91 0 8 14 20 30 26 17 6 30 14 30 18 0 7
-166 49 -193 49 -36 0 -15 18 41 34 31 9 77 25 102 35 25 11 47 19 50 20 3 0
16 -25 30 -57z"/>
<path d="M3216 1016 c-3 -13 -9 -31 -12 -40 -5 -13 1 -16 25 -16 35 0 38 8 16
50 -19 36 -21 37 -29 6z"/>
</g>
</svg>
