<?xml version="1.0" standalone="no"?>
<!DOCTYPE svg PUBLIC "-//W3C//DTD SVG 20010904//EN"
 "http://www.w3.org/TR/2001/REC-SVG-20010904/DTD/svg10.dtd">
<svg version="1.0" xmlns="http://www.w3.org/2000/svg"
 width="500.000000pt" height="500.000000pt" viewBox="0 0 500.000000 500.000000"
 preserveAspectRatio="xMidYMid meet">

<g transform="translate(0.000000,500.000000) scale(0.100000,-0.100000)"
fill="#000000" stroke="none">
<path d="M4181 2953 c0 -25 1 -26 9 -8 12 27 12 35 0 35 -5 0 -10 -12 -9 -27z"/>
<path d="M4227 2967 c-3 -8 -2 -20 3 -26 5 -9 8 -4 8 13 0 29 -3 32 -11 13z"/>
<path d="M4071 2939 c1 -25 3 -28 6 -11 4 22 5 23 18 5 8 -10 15 -13 15 -7 0
6 -9 19 -20 29 -20 18 -20 17 -19 -16z"/>
<path d="M4280 2955 c0 -8 4 -15 10 -15 5 0 7 7 4 15 -4 8 -8 15 -10 15 -2 0
-4 -7 -4 -15z"/>
<path d="M4008 2915 c-3 -14 -1 -28 3 -31 5 -3 9 2 9 11 0 9 5 13 11 9 8 -4 8
0 0 15 -15 27 -18 26 -23 -4z"/>
<path d="M4277 2919 c7 -7 15 -10 18 -7 3 3 -2 9 -12 12 -14 6 -15 5 -6 -5z"/>
<path d="M3970 2910 c0 -5 5 -10 11 -10 5 0 7 5 4 10 -3 6 -8 10 -11 10 -2 0
-4 -4 -4 -10z"/>
<path d="M4392 2900 c-18 -29 -15 -38 4 -12 9 13 14 25 12 27 -2 2 -9 -5 -16
-15z"/>
<path d="M3938 2880 c6 -8 12 -20 12 -27 0 -19 -27 -16 -39 5 -6 9 -11 12 -11
6 0 -18 28 -37 45 -30 20 7 19 31 -2 47 -15 11 -16 11 -5 -1z"/>
<path d="M4413 2867 c-1 -11 -1 -18 0 -16 2 2 8 11 15 20 9 12 9 16 -1 16 -7
0 -14 -9 -14 -20z"/>
<path d="M4450 2845 c-10 -12 -10 -18 0 -30 14 -16 36 -20 44 -7 3 5 -5 8 -17
8 -13 -1 -22 5 -22 14 0 9 9 15 22 14 12 0 20 3 17 8 -8 13 -30 9 -44 -7z"/>
<path d="M4516 2782 c-2 -4 4 -8 14 -8 10 0 16 4 14 8 -3 4 -9 8 -14 8 -5 0
-11 -4 -14 -8z"/>
<path d="M3830 2772 c0 -5 10 -17 22 -28 12 -10 18 -13 14 -6 -4 7 0 15 10 19
16 6 16 7 -2 14 -26 10 -44 11 -44 1z m30 -12 c0 -5 -2 -10 -4 -10 -3 0 -8 5
-11 10 -3 6 -1 10 4 10 6 0 11 -4 11 -10z"/>
<path d="M4510 2751 c0 -5 9 -7 20 -4 11 3 20 7 20 9 0 2 -9 4 -20 4 -11 0
-20 -4 -20 -9z"/>
<path d="M1257 2712 c-60 -17 -102 -34 -108 -44 -6 -12 1 -56 26 -146 19 -71
35 -136 35 -143 0 -15 -59 -53 -68 -45 -2 3 7 11 22 17 14 7 26 17 26 23 -1
18 -66 266 -72 272 -9 8 -97 -38 -103 -54 -3 -7 22 -73 54 -145 32 -73 56
-136 53 -141 -3 -5 -20 22 -37 60 -48 105 -88 189 -91 193 -4 4 -95 -67 -106
-83 -3 -5 -4 -16 0 -25 6 -19 168 -227 183 -236 5 -4 32 -1 59 6 54 14 70 8
53 -19 -13 -22 -28 -212 -18 -241 9 -29 42 -46 61 -30 10 8 17 9 28 0 34 -28
58 9 80 128 8 40 18 76 23 81 9 8 75 31 79 27 1 -1 -2 -37 -8 -79 -9 -66 -9
-81 5 -101 13 -21 24 -25 67 -25 43 0 53 4 61 22 9 20 18 21 138 22 121 2 128
1 137 -20 8 -18 18 -21 71 -23 59 -2 64 0 141 52 l79 53 22 -21 c18 -18 38
-23 129 -30 59 -4 121 -8 137 -8 22 -1 35 -9 50 -33 19 -29 25 -31 86 -34 60
-3 68 0 104 28 31 25 44 29 70 24 19 -3 35 -1 39 5 5 7 13 8 25 2 9 -5 43 -8
73 -7 49 3 66 10 123 50 70 49 85 54 85 32 0 -7 7 -19 16 -27 20 -16 102 -20
129 -6 11 6 42 10 69 10 38 -1 54 -7 77 -29 23 -22 39 -28 85 -30 64 -4 101 9
158 54 30 25 42 29 56 22 10 -6 44 -10 74 -10 31 0 56 -2 56 -5 0 -3 -13 -50
-29 -104 -60 -200 -52 -241 41 -239 29 0 60 5 69 9 21 11 46 74 115 294 30 99
87 260 126 359 39 98 71 189 71 202 0 40 -19 52 -82 53 -71 0 -70 1 -146 -139
-48 -88 -158 -250 -171 -250 -7 0 9 67 27 108 23 54 12 84 -29 82 -65 -5 -82
0 -82 20 0 30 -38 49 -96 45 -58 -3 -78 -12 -118 -54 l-30 -31 -12 29 c-12 29
-15 30 -74 30 -40 -1 -63 -5 -66 -13 -3 -9 -23 -12 -61 -10 -31 2 -64 -1 -74
-6 -14 -8 -19 -6 -24 10 -3 11 -17 23 -31 26 -26 7 -119 0 -166 -12 -20 -4
-28 -3 -28 7 -1 34 -30 53 -82 55 -68 3 -83 -6 -113 -67 -17 -33 -30 -47 -38
-42 -7 4 -34 9 -60 10 -50 1 -64 -6 -97 -54 -14 -20 -18 -21 -52 -10 -25 8
-38 18 -38 29 0 30 -46 40 -133 29 -19 -2 -111 -100 -144 -153 -20 -32 -38
-58 -40 -58 -2 0 0 18 3 40 5 31 3 41 -10 46 -25 10 -19 18 29 42 55 26 77 64
52 89 -29 30 -209 18 -251 -16 -13 -11 -19 -11 -33 0 -12 11 -59 14 -192 15
-281 2 -322 4 -284 15 l32 9 -25 93 c-49 182 -55 197 -72 196 -9 0 -61 -13
-115 -27z m-58 -174 c30 -115 36 -147 26 -136 -8 7 -65 226 -65 246 0 29 8 7
39 -110z m88 60 c-3 -8 -6 -5 -6 6 -1 11 2 17 5 13 3 -3 4 -12 1 -19z m2806
-12 c3 -6 -15 -61 -40 -121 -66 -165 -138 -369 -179 -507 -50 -173 -72 -220
-98 -216 -43 6 -27 104 64 372 22 66 38 121 36 123 -1 2 -16 -15 -31 -37 -73
-106 -154 -141 -192 -83 -36 55 -7 229 47 278 27 25 43 11 26 -23 -34 -66 -47
-220 -20 -229 33 -11 190 180 264 320 23 45 54 96 67 114 23 31 46 35 56 9z
m-2962 -213 c5 -13 5 -23 1 -23 -8 0 -103 210 -101 225 1 9 80 -151 100 -202z
m1686 116 c8 -8 8 -24 -3 -58 -8 -25 -30 -107 -49 -181 -53 -205 -54 -208 -71
-224 -18 -18 -44 -10 -44 13 0 33 -13 30 -41 -9 -73 -100 -139 -84 -139 34 0
94 78 318 115 332 29 12 36 -10 15 -49 -25 -46 -70 -228 -70 -281 l0 -39 21
19 c36 32 107 163 135 249 60 180 94 231 131 194z m791 -51 c3 -29 -42 -128
-59 -128 -11 0 -5 29 17 72 35 68 -6 48 -53 -26 -48 -76 -90 -216 -65 -216 5
0 19 11 31 24 31 33 87 59 111 51 38 -12 20 -63 -43 -125 -78 -74 -128 -89
-168 -49 -62 62 32 319 146 401 48 35 79 34 83 -4z m-2620 -83 c39 -49 69 -91
67 -94 -3 -2 -13 7 -24 20 -10 13 -44 56 -75 94 -31 39 -56 74 -56 80 0 12 6
6 88 -100z m2067 85 c11 -18 -12 -37 -73 -60 -88 -35 -113 -79 -42 -72 35 4
40 1 40 -16 0 -14 -17 -30 -54 -51 -45 -25 -57 -37 -65 -68 -6 -21 -11 -47
-11 -57 0 -18 3 -17 28 6 42 39 139 98 162 98 29 0 37 -28 14 -50 -37 -34
-217 -150 -234 -150 -10 0 -20 7 -24 15 -5 14 7 95 20 138 4 13 0 16 -17 15
-40 -5 -35 28 10 59 47 33 63 77 35 98 -17 12 -17 14 10 36 15 13 37 32 48 42
11 10 22 17 24 14 3 -3 17 -1 32 3 39 12 90 12 97 0z m303 -39 c4 -58 -25
-238 -46 -281 -33 -67 -83 -44 -103 46 -7 30 -15 54 -19 54 -4 0 -11 -21 -15
-47 -9 -62 -30 -113 -47 -113 -44 0 -48 57 -14 193 27 104 49 155 72 164 28
10 36 -14 49 -139 6 -68 16 -132 22 -142 10 -19 11 -19 21 0 16 30 32 131 32
200 0 70 14 118 33 112 6 -3 13 -24 15 -47z m-1243 -1 c0 -9 -28 -29 -65 -47
-74 -35 -90 -48 -90 -67 0 -11 10 -13 40 -9 36 5 40 3 40 -15 0 -15 -17 -31
-57 -55 -54 -31 -59 -36 -69 -85 -7 -29 -10 -52 -7 -52 3 0 23 15 45 34 22 19
64 47 94 63 50 26 55 27 70 11 9 -9 13 -21 10 -26 -8 -13 -182 -134 -224 -156
-27 -14 -31 -14 -43 0 -11 13 -10 29 2 89 l15 73 -26 -1 c-38 -3 -31 23 17 58
47 34 63 73 39 91 -25 18 -19 32 23 58 22 14 42 30 46 36 3 6 10 8 14 6 4 -3
21 -1 37 4 43 13 89 8 89 -10z m-645 -5 c10 -12 10 -18 1 -29 -9 -10 3 -8 41
6 41 16 82 22 178 25 138 4 172 -5 178 -46 7 -47 -14 -67 -198 -200 l-45 -32
87 2 c93 3 115 -5 104 -38 -9 -30 -52 -45 -136 -50 -65 -4 -102 0 -169 18 -8
3 -18 -10 -26 -31 -37 -107 -39 82 -2 208 26 88 21 99 -27 61 -26 -21 -56 -20
-56 1 0 6 12 23 28 37 15 14 20 24 12 21 -8 -3 -45 -15 -81 -27 -67 -22 -78
-34 -79 -83 0 -15 9 -18 50 -18 28 0 50 -4 50 -9 0 -6 -25 -18 -56 -28 -63
-20 -65 -22 -84 -134 -14 -89 -24 -109 -41 -92 -18 18 -11 211 9 237 5 6 12
26 16 45 6 31 4 33 -17 27 -62 -18 -77 -19 -77 -3 0 21 24 44 74 68 22 11 51
33 64 47 21 25 24 26 36 10 7 -10 15 -16 18 -13 5 5 107 33 124 34 6 1 17 -6
24 -14z m874 -22 c0 -17 7 -22 40 -26 54 -8 86 -44 86 -98 0 -47 -19 -97 -48
-123 l-21 -18 21 -29 c17 -23 19 -32 10 -41 -10 -10 -19 -9 -45 2 -21 9 -61
13 -119 11 -76 -2 -89 0 -107 18 -21 21 -25 41 -21 91 4 51 99 187 155 222 35
21 50 19 49 -9z m761 -55 c-13 -40 -28 -74 -34 -76 -14 -5 -14 0 -1 33 8 21 6
30 -13 48 l-22 22 45 22 c25 12 46 22 46 22 1 1 -8 -31 -21 -71z m494 -30 c28
-17 15 -48 -20 -48 -33 0 -33 0 -17 35 13 29 12 29 37 13z m-2502 -28 c-3 -12
-1 -18 5 -14 6 4 9 1 6 -6 -2 -8 -10 -16 -16 -18 -18 -6 -26 26 -12 43 17 21
23 19 17 -5z"/>
<path d="M1640 2348 c-41 -5 -80 -14 -86 -21 -12 -13 -39 -165 -30 -174 12
-12 296 167 296 187 0 9 -54 21 -84 19 -11 -1 -55 -6 -96 -11z m93 -46 c-18
-15 -51 -37 -73 -50 l-41 -23 7 38 c4 21 8 40 10 42 2 2 88 17 119 19 6 1 -4
-11 -22 -26z"/>
<path d="M2278 2274 c-9 -19 -5 -29 32 -73 36 -42 46 -49 61 -40 37 19 63 99
38 114 -5 4 -35 10 -65 14 -52 7 -57 6 -66 -15z m112 -30 c0 -14 -3 -14 -15
-4 -8 7 -15 14 -15 16 0 2 7 4 15 4 8 0 15 -7 15 -16z"/>
<path d="M2216 2164 c-12 -31 -6 -44 19 -44 25 0 25 0 10 30 -18 34 -21 36
-29 14z"/>
<path d="M3808 2713 c6 -2 12 -13 12 -24 0 -10 5 -19 11 -19 5 0 7 5 4 10 -3
6 -1 10 6 10 7 0 4 7 -7 15 -10 8 -23 14 -29 14 -5 0 -4 -3 3 -6z"/>
<path d="M3790 2690 c0 -5 5 -10 11 -10 5 0 7 5 4 10 -3 6 -8 10 -11 10 -2 0
-4 -4 -4 -10z"/>
<path d="M4578 2662 c9 -10 19 -17 21 -16 6 5 -20 34 -30 34 -5 0 -1 -8 9 -18z"/>
<path d="M3810 2624 c0 -14 -3 -14 -15 -4 -8 7 -15 8 -15 3 0 -5 10 -14 23
-20 19 -9 22 -8 22 13 0 13 -3 24 -7 24 -5 0 -8 -7 -8 -16z"/>
<path d="M4548 2628 c6 -6 18 -8 28 -6 14 3 12 5 -9 10 -19 3 -25 2 -19 -4z"/>
<path d="M4561 2567 c-8 -10 -7 -14 4 -14 8 0 15 6 15 14 0 7 -2 13 -4 13 -2
0 -9 -6 -15 -13z"/>
<path d="M3775 2551 c-3 -7 0 -8 9 -5 17 7 22 -11 6 -19 -6 -3 -5 -4 2 -3 16
3 17 28 1 33 -6 2 -14 -1 -18 -6z"/>
<path d="M4560 2481 c0 -7 -5 -9 -12 -5 -7 5 -8 3 -3 -5 5 -9 10 -10 18 -2 6
6 8 14 4 18 -4 3 -7 1 -7 -6z"/>
<path d="M4536 2418 c17 -19 17 -21 2 -15 -10 3 -20 2 -23 -3 -4 -6 8 -10 26
-10 l32 0 -23 25 c-29 31 -40 33 -14 3z"/>
<path d="M4502 2351 c13 -22 28 -28 28 -11 0 5 -9 14 -20 20 -19 10 -20 10 -8
-9z"/>
<path d="M4461 2337 c2 -1 13 -9 24 -17 19 -14 19 -14 6 3 -7 9 -18 17 -24 17
-6 0 -8 -1 -6 -3z"/>
<path d="M4455 2290 c10 -11 20 -20 23 -20 3 0 -3 9 -13 20 -10 11 -20 20 -23
20 -3 0 3 -9 13 -20z"/>
<path d="M4395 2279 c-5 -8 -4 -10 3 -5 8 5 12 -4 13 -26 2 -32 2 -32 6 -4 5
32 -10 55 -22 35z"/>
<path d="M4338 2236 c-17 -12 -17 -14 2 -31 11 -10 20 -13 20 -7 0 6 -6 13
-12 15 -10 4 -9 8 2 16 8 5 12 12 10 15 -3 2 -13 -1 -22 -8z"/>
<path d="M4252 2235 c4 -4 3 -14 -4 -22 -8 -11 -7 -12 6 -7 19 7 21 20 4 30
-7 4 -10 4 -6 -1z"/>
<path d="M4288 2193 c5 -21 7 -23 10 -9 2 10 0 22 -6 28 -6 6 -7 0 -4 -19z"/>
<path d="M4188 2203 c-10 -2 -18 -8 -18 -13 0 -4 9 -6 20 -3 11 3 20 9 20 14
0 5 -1 8 -2 8 -2 -1 -11 -3 -20 -6z"/>
<path d="M4087 2169 c7 -7 15 -10 18 -7 3 3 -2 9 -12 12 -14 6 -15 5 -6 -5z"/>
<path d="M4185 2170 c-3 -5 -1 -10 4 -10 6 0 11 5 11 10 0 6 -2 10 -4 10 -3 0
-8 -4 -11 -10z"/>
</g>
</svg>
